#!OML:ASF I:\Actors\actors\Patient Classification 2\Patient 1\Session 1\actor1.ASF
:FULLY-SPECIFIED
:DEGREES
578
root -0.643696 18.7209 5.71471 3.03681 -4.97638 -4.24811
lowerback 5.19279 3.06896 -2.7678
upperback -2.21916 3.73466 -3.20054
thorax -5.18018 1.88219 -2.13332
lowerneck -13.2674 -3.13602 1.452
upperneck 21.6668 -8.77705 16.6704
head 9.89743 -2.19706 4.49655
rclavicle -1.83876e-015 -3.97569e-014
rhumerus 60.7108 35.3615 -22.5469
rradius 111.147
rwrist -20.7758
rhand -3.76723 -37.7847
rfingers 7.12502
rthumb 21.9775 -66.5562
lclavicle -1.83876e-015 -3.97569e-014
lhumerus 6.14972 15.6488 82.5929
lradius 118.054
lwrist 98.7587
lhand -25.7084 -25.7814
lfingers 7.12502
lthumb 0.827388 4.19677
rfemur 0 0 0
rtibia 0
rfoot 0 0
rtoes 0
lfemur -4.85156 -6.85532 -10.3779
ltibia 22.6363
lfoot -26.5772 18.4352
ltoes -53.8377
579
root -0.641041 18.7223 5.71689 3.08545 -4.81485 -4.19224
lowerback 5.04157 2.98275 -2.80588
upperback -2.17244 3.63175 -3.08679
thorax -5.05609 1.83466 -1.97238
lowerneck -13.0952 -3.14463 1.44877
upperneck 21.8271 -8.79356 16.6268
head 9.91954 -2.20754 4.4863
rclavicle -5.46658e-015 3.81667e-014
rhumerus 59.9365 36.1224 -23.189
rradius 111.59
rwrist -21.4653
rhand -3.5177 -37.0665
rfingers 7.12502
rthumb 22.217 -65.8096
lclavicle -5.46658e-015 3.81667e-014
lhumerus 5.91555 15.8716 82.7797
lradius 118.133
lwrist 98.8472
lhand -25.6495 -25.9408
lfingers 7.12502
lthumb 0.884256 4.03709
rfemur 0 0 0
rtibia 0
rfoot 0 0
rtoes 0
lfemur -4.97611 -6.95591 -10.4352
ltibia 22.6847
lfoot -26.5823 18.4063
ltoes -53.8859
580
root -0.637926 18.7227 5.71676 3.08596 -4.68562 -4.13938
lowerback 4.97272 2.86046 -2.87843
upperback -2.1078 3.47971 -2.86513
thorax -4.96865 1.7653 -1.68081
lowerneck -12.9923 -3.17024 1.19914
upperneck 22.0826 -8.81168 16.6232
head 9.99962 -2.22624 4.53618
rclavicle 2.38045e-014 -1.43125e-014
rhumerus 59.2754 37.0479 -23.7035
rradius 111.902
rwrist -22.162
rhand -3.70738 -36.4649
rfingers 7.12502
rthumb 22.0349 -65.2296
lclavicle 2.38045e-014 -1.43125e-014
lhumerus 5.56583 16.3232 83.0419
lradius 118.219
lwrist 99.1608
lhand -25.7698 -26.0808
lfingers 7.12502
lthumb 0.768071 3.89753
rfemur 0 0 0
rtibia 0
rfoot 0 0
rtoes 0
lfemur -5.03369 -7.01374 -10.4929
ltibia 22.7053
lfoot -26.5511 18.3354
ltoes -53.8704
581
root -0.635572 18.723 5.7144 3.05839 -4.60964 -4.08816
lowerback 4.97558 2.77369 -2.97887
upperback -2.02989 3.37051 -2.62901
thorax -4.9092 1.71786 -1.3671
lowerneck -12.8405 -3.15157 0.954618
upperneck 22.2699 -8.78576 16.7546
head 10.0501 -2.21707 4.63889
rclavicle 1.46604e-014 4.77083e-015
rhumerus 58.4053 38.0608 -24.2672
rradius 111.856
rwrist -22.4847
rhand -4.55413 -35.5736
rfingers 7.12502
rthumb 21.2218 -64.4319
lclavicle 1.46604e-014 4.77083e-015
lhumerus 5.18279 16.7384 83.2324
lradius 118.283
lwrist 99.6314
lhand -25.9076 -26.1496
lfingers 7.12502
lthumb 0.635008 3.82917
rfemur 0 0 0
rtibia 0
rfoot 0 0
rtoes 0
lfemur -5.04497 -6.98539 -10.545
ltibia 22.7079
lfoot -26.4832 18.2803
ltoes -53.8798
582
root -0.634278 18.7228 5.71008 3.02686 -4.56895 -4.03324
lowerback 4.87336 2.77194 -3.12844
upperback -1.86384 3.37606 -2.46626
thorax -4.69641 1.72622 -1.10368
lowerneck -12.6945 -3.07668 1.15315
upperneck 22.2811 -8.7293 16.8156
head 10.0178 -2.1735 4.63611
rclavicle -2.46493e-014 1.43125e-014
rhumerus 57.1394 38.899 -25.0673
rradius 111.527
rwrist -22.451
rhand -5.50023 -34.9775
rfingers 7.12502
rthumb 20.3127 -63.9353
lclavicle -2.46493e-014 1.43125e-014
lhumerus 4.95011 16.8623 83.3574
lradius 118.309
lwrist 100.003
lhand -25.9549 -26.5288
lfingers 7.12502
lthumb 0.589297 3.45011
rfemur 0 0 0
rtibia 0
rfoot 0 0
rtoes 0
lfemur -5.04374 -6.95068 -10.5999
ltibia 22.705
lfoot -26.4347 18.2372
ltoes -53.8861
583
root -0.63402 18.7229 5.70435 2.97822 -4.511 -3.96492
lowerback 4.52997 2.69492 -3.4548
upperback -1.51249 3.29364 -2.18519
thorax -4.17081 1.69337 -0.59274
lowerneck -12.7289 -2.93558 1.40616
upperneck 22.2517 -8.54013 16.6537
head 9.97797 -2.08151 4.55602
rclavicle 1.98785e-014 -3.02153e-014
rhumerus 56.225 39.5888 -25.5914
rradius 111.128
rwrist -22.4303
rhand -5.98427 -34.7278
rfingers 7.12502
rthumb 19.8475 -63.7343
lclavicle 1.98785e-014 -3.02153e-014
lhumerus 4.86404 17.244 83.5378
lradius 118.355
lwrist 100.181
lhand -26.0614 -27.1252
lfingers 7.12502
lthumb 0.486438 2.85395
rfemur 0 0 0
rtibia 0
rfoot 0 0
rtoes 0
lfemur -5.03623 -6.86437 -10.6557
ltibia 22.6954
lfoot -26.3268 18.1059
ltoes -53.8826
584
root -0.633701 18.7239 5.69931 2.9406 -4.46984 -3.86077
lowerback 4.99993 2.66573 -3.31771
upperback -1.73423 3.23404 -2.13778
thorax -4.66164 1.66531 -0.647935
lowerneck -12.4108 -2.95697 1.3223
upperneck 22.5681 -8.62308 16.8013
head 10.0489 -2.1062 4.62932
rclavicle 4.41302e-014 -2.38542e-014
rhumerus 54.389 40.9948 -26.788
rradius 110.807
rwrist -22.4524
rhand -6.0473 -34.4896
rfingers 7.12502
rthumb 19.7869 -63.5025
lclavicle 4.41302e-014 -2.38542e-014
lhumerus 3.88199 17.3374 83.1831
lradius 118.415
lwrist 100.424
lhand -26.2116 -27.3925
lfingers 7.12502
lthumb 0.34135 2.58693
rfemur 0 0 0
rtibia 0
rfoot 0 0
rtoes 0
lfemur -5.04238 -6.73359 -10.7462
ltibia 22.681
lfoot -26.1663 17.9658
ltoes -53.913
585
root -0.633266 18.7242 5.69422 2.91878 -4.49919 -3.77599
lowerback 5.15155 2.62922 -3.3158
upperback -1.74419 3.18494 -1.9752
thorax -4.76628 1.6441 -0.484679
lowerneck -12.1928 -2.97262 1.10982
upperneck 22.751 -8.65674 16.9605
head 10.0909 -2.12281 4.72995
rclavicle 2.89232e-014 0
rhumerus 52.8634 42.1698 -27.6671
rradius 110.602
rwrist -22.576
rhand -6.06638 -34.2348
rfingers 7.12502
rthumb 19.7685 -63.2496
lclavicle 2.89232e-014 0
lhumerus 3.23308 17.6305 83.0568
lradius 118.471
lwrist 100.616
lhand -26.4189 -27.298
lfingers 7.12502
lthumb 0.141127 2.68169
rfemur 0 0 0
rtibia 0
rfoot 0 0
rtoes 0
lfemur -5.03834 -6.58485 -10.8283
ltibia 22.6664
lfoot -26.0532 17.8758
ltoes -53.9221
